<svg xmlns="http://www.w3.org/2000/svg" viewBox="0 0 24.15 24.15"><defs><style>.cls-1{fill:#fff;}</style></defs><g id="Layer_2" data-name="Layer 2"><g id="Layer_1-2" data-name="Layer 1"><path class="cls-1" d="M12.21,14.61,14.82,12H7.17a.95.95,0,0,1,0-1.89h7.55L12.21,7.65a.94.94,0,0,1,1.33-1.34l2.84,2.82a2.82,2.82,0,0,1,.84,2,2.78,2.78,0,0,1-.84,2L13.54,16a.9.9,0,0,1-.66.28,1,1,0,0,1-.67-1.62ZM20.58,3.23A12.52,12.52,0,0,0,12.08,0,12.55,12.55,0,0,0,3.57,3.23,10.65,10.65,0,0,0,0,11.13a10.46,10.46,0,0,0,2.21,6.43L.07,22.85a.94.94,0,0,0,.87,1.3,1,1,0,0,0,.38-.08L7.39,21.4a13,13,0,0,0,4.69.86,12.94,12.94,0,0,0,5.82-1.37A.94.94,0,1,0,17,19.21a11.07,11.07,0,0,1-5,1.17,11,11,0,0,1-4.33-.88.93.93,0,0,0-.75,0l-4.31,1.9,1.48-3.66a1,1,0,0,0-.16-1,8.61,8.61,0,0,1-2.12-5.65c0-5.1,4.57-9.24,10.19-9.24S22.26,6,22.26,11.13a8.57,8.57,0,0,1-1.57,4.94.94.94,0,1,0,1.55,1.08,10.47,10.47,0,0,0,1.91-6A10.65,10.65,0,0,0,20.58,3.23Z"/></g></g></svg>