<?xml version="1.0" encoding="utf-8"?>
<!-- Generator: Adobe Illustrator 25.0.1, SVG Export Plug-In . SVG Version: 6.00 Build 0)  -->
<svg version="1.1" id="Layer_1" xmlns="http://www.w3.org/2000/svg" xmlns:xlink="http://www.w3.org/1999/xlink" x="0px" y="0px"
	 viewBox="0 0 40.2 40.2" style="enable-background:new 0 0 40.2 40.2;" xml:space="preserve">
<style type="text/css">
	.st0{fill:#636363;}
	.st1{fill:#FFFFFF;}
</style>
<g id="Layer_2_1_">
	<g id="Layer_1-2">
		<circle class="st0" cx="20.1" cy="20.1" r="20.1"/>
		<path class="st1" d="M23.3,15.3c0,1.7-1.4,3.1-3.1,3.2c-1.7,0-3.1-1.4-3.2-3.2c0-1.7,1.4-3.2,3.1-3.2c0,0,0,0,0,0
			C21.8,12.2,23.3,13.6,23.3,15.3z"/>
		<path class="st1" d="M26.5,26.9c0-0.1,0-0.2,0-0.3c0-3.6-2.9-6.4-6.4-6.4c-3.6,0-6.4,2.9-6.4,6.4c0,0,0,0,0,0c0,0.1,0,0.2,0,0.3
			H26.5z"/>
	</g>
</g>
</svg>
